<?xml version="1.0" encoding="utf-8"?>
<!-- Generator: Adobe Illustrator 15.1.0, SVG Export Plug-In . SVG Version: 6.00 Build 0)  -->
<!DOCTYPE svg PUBLIC "-//W3C//DTD SVG 1.1//EN" "http://www.w3.org/Graphics/SVG/1.1/DTD/svg11.dtd">
<svg version="1.1" id="Layer_1" xmlns="http://www.w3.org/2000/svg" xmlns:xlink="http://www.w3.org/1999/xlink" x="0px" y="0px"
	 width="48px" height="48px" viewBox="0 0 48 48" enable-background="new 0 0 48 48" xml:space="preserve">
<g>
	<path d="M17,45L3,31L31,3l14,14L17,45z M17,17l14,14 M17,45l14-14L17,16.999L3,31L17,45z"/>
	<path d="M17,46c-0.256,0-0.512-0.098-0.707-0.293l-14-14c-0.003-0.003-0.006-0.006-0.01-0.01c-0.001-0.001-0.003-0.002-0.005-0.005
		c-0.001-0.002-0.003-0.004-0.005-0.006c0,0-0.001,0-0.001-0.001c-0.002-0.002-0.005-0.005-0.007-0.008
		c-0.001-0.001-0.003-0.003-0.004-0.004c-0.006-0.007-0.012-0.014-0.018-0.021l0,0c-0.002-0.002-0.003-0.005-0.005-0.007
		c-0.001-0.001-0.003-0.003-0.004-0.005c-0.33-0.394-0.31-0.979,0.06-1.349l14-14.001c0.009-0.009,0.018-0.018,0.026-0.026
		L30.293,2.293c0.391-0.391,1.023-0.391,1.414,0l14,14c0.391,0.391,0.391,1.023,0,1.414l-28,28C17.512,45.902,17.256,46,17,46z
		 M4.414,31L17,43.586L29.586,31L17,18.414L4.414,31z"/>
</g>
</svg>
