<?xml version="1.0" encoding="utf-8"?>
<!-- Generator: Adobe Illustrator 15.1.0, SVG Export Plug-In . SVG Version: 6.00 Build 0)  -->
<!DOCTYPE svg PUBLIC "-//W3C//DTD SVG 1.1//EN" "http://www.w3.org/Graphics/SVG/1.1/DTD/svg11.dtd">
<svg version="1.1" id="Layer_1" xmlns="http://www.w3.org/2000/svg" xmlns:xlink="http://www.w3.org/1999/xlink" x="0px" y="0px"
	 width="48px" height="48px" viewBox="0 0 48 48" enable-background="new 0 0 48 48" xml:space="preserve">
<g>
	<path d="M41,48H7c-0.552,0-1-0.447-1-1V1c0-0.552,0.448-1,1-1h23c0.266,0,0.52,0.105,0.707,0.293l11,11
		C41.895,11.48,42,11.735,42,12v35C42,47.553,41.553,48,41,48z M9.606,46H40V25.414l-8.293,8.293c-0.391,0.391-1.023,0.391-1.414,0
		l-3.329-3.329L9.606,46z M8,2v42.755l18.331-16.498c0.396-0.356,1-0.339,1.376,0.036L31,31.586l9-9V13H30c-0.553,0-1-0.448-1-1V2H8
		z M31,11h7.586L31,3.414V11z M16,25c-2.757,0-5-2.243-5-5s2.243-5,5-5s5,2.243,5,5S18.757,25,16,25z M16,17c-1.654,0-3,1.346-3,3
		s1.346,3,3,3s3-1.346,3-3S17.654,17,16,17z"/>
</g>
</svg>
