<?xml version="1.0" encoding="utf-8"?>
<!-- Generator: Adobe Illustrator 15.1.0, SVG Export Plug-In . SVG Version: 6.00 Build 0)  -->
<!DOCTYPE svg PUBLIC "-//W3C//DTD SVG 1.1//EN" "http://www.w3.org/Graphics/SVG/1.1/DTD/svg11.dtd">
<svg version="1.1" id="Layer_1" xmlns="http://www.w3.org/2000/svg" xmlns:xlink="http://www.w3.org/1999/xlink" x="0px" y="0px"
	 width="48px" height="48px" viewBox="0 0 48 48" enable-background="new 0 0 48 48" xml:space="preserve">
<g>
	<path d="M10.706,47.25c-0.054,0-0.109-0.004-0.164-0.014c-1.458-0.241-2.474-0.994-2.787-2.066c-0.33-1.13,0.17-2.396,1.371-3.475
		c0.261-0.235,0.524-0.466,0.788-0.696c0.549-0.482,1.097-0.963,1.625-1.484c0.055-0.054,0.126-0.118,0.204-0.188
		c0.034-0.03,0.079-0.071,0.126-0.115c-0.114-0.046-0.235-0.089-0.322-0.119c-0.162-0.058-0.31-0.111-0.428-0.164
		c-0.487-0.217-1.034-0.42-1.602-0.631c-2.681-0.999-6.732-2.507-5.889-6.881c0.263-1.363,1.127-2.267,1.889-3.064
		c0.545-0.57,1.061-1.109,1.318-1.762c0.144-0.363,0.295-0.748,0.488-1.135c-1.369-0.367-2.681-0.878-3.802-1.63
		c-0.912-0.612-2.291-1.537-2.458-3.096c-0.377-3.549,3.029-7.185,4.083-8.215c1.233-1.206,3.911-3.571,7.988-5.867
		c4.296-2.42,10.474-4.922,13.22-5.353c4.395-0.692,9.788-0.463,14.077,0.594c1.921,0.473,5.305,1.567,6.367,3.593
		c1.58,3.018-1.873,7.408-4.28,8.794c-0.773,0.445-1.568,0.858-2.363,1.27c-1.531,0.794-2.978,1.544-4.256,2.519
		c-1.19,0.91-2.235,1.91-3.341,2.968c-0.707,0.677-1.438,1.377-2.207,2.046c-2.003,1.744-4.108,2.234-6.546,2.801
		c-0.623,0.145-1.272,0.295-1.954,0.477c-2.501,0.664-5.594,0.45-8.229,0.144c-0.145,0.333-0.35,0.621-0.607,0.845
		c-0.452,0.393-1.041,0.559-1.656,0.467c-1.363-0.202-1.785-1.141-1.918-1.893c-0.026-0.004-0.052-0.009-0.078-0.014
		c-0.253,0.395-0.444,0.852-0.668,1.42c-0.401,1.017-1.108,1.757-1.732,2.409c-0.654,0.685-1.219,1.276-1.371,2.062
		c-0.486,2.522,1.515,3.47,4.623,4.627c0.609,0.227,1.197,0.446,1.719,0.68c0.077,0.034,0.175,0.067,0.28,0.104
		c0.624,0.221,1.668,0.591,1.843,1.632c0.161,0.955-0.58,1.619-0.978,1.977l-0.132,0.121c-0.565,0.559-1.149,1.07-1.713,1.566
		c-0.257,0.225-0.514,0.45-0.77,0.681c-0.705,0.633-0.865,1.164-0.788,1.427c0.086,0.296,0.543,0.547,1.193,0.654
		c0.545,0.09,0.914,0.604,0.824,1.149C11.611,46.903,11.187,47.25,10.706,47.25z M13.792,24.505
		c2.478,0.291,5.356,0.497,7.545-0.083c0.702-0.187,1.372-0.343,2.014-0.492c2.268-0.527,4.059-0.943,5.687-2.361
		c0.732-0.638,1.446-1.321,2.137-1.982c1.097-1.049,2.23-2.134,3.51-3.112c1.417-1.082,3.01-1.907,4.549-2.705
		c0.769-0.398,1.538-0.797,2.286-1.228c1.744-1.004,4.413-4.402,3.507-6.132c-0.487-0.929-2.479-1.941-5.073-2.579
		C35.967,2.848,30.75,2.629,26.664,3.27c-2.219,0.348-8.184,2.66-12.549,5.119l0,0c-3.878,2.185-6.408,4.418-7.571,5.555
		c-1.835,1.795-3.716,4.464-3.492,6.573c0.062,0.582,0.784,1.111,1.583,1.646c1.111,0.746,2.513,1.22,3.983,1.551
		c1.078-1.025,1.991-1.547,2.788-1.594c0.544-0.024,1.051,0.158,1.465,0.547C13.387,23.152,13.67,23.862,13.792,24.505z"/>
</g>
</svg>
