<?xml version="1.0" encoding="utf-8"?>
<!-- Generator: Adobe Illustrator 15.1.0, SVG Export Plug-In . SVG Version: 6.00 Build 0)  -->
<!DOCTYPE svg PUBLIC "-//W3C//DTD SVG 1.1//EN" "http://www.w3.org/Graphics/SVG/1.1/DTD/svg11.dtd">
<svg version="1.1" id="Layer_1" xmlns="http://www.w3.org/2000/svg" xmlns:xlink="http://www.w3.org/1999/xlink" x="0px" y="0px"
	 width="48px" height="48px" viewBox="0 0 48 48" enable-background="new 0 0 48 48" xml:space="preserve">
<g>
	<path d="M47,48H37v-2h9v-9h2v10C48,47.553,47.553,48,47,48z M29,48H19v-2h10V48z M11,48H1c-0.552,0-1-0.447-1-1V37h2v9h9V48z
		 M48,29h-2V19h2V29z M2,29H0V19h2V29z M48,11h-2V2h-9V0h10c0.553,0,1,0.448,1,1V11z M2,11H0V1c0-0.552,0.448-1,1-1h10v2H2V11z
		 M29,2H19V0h10V2z"/>
</g>
</svg>
