<?xml version="1.0" encoding="utf-8"?>
<!-- Generator: Adobe Illustrator 15.1.0, SVG Export Plug-In . SVG Version: 6.00 Build 0)  -->
<!DOCTYPE svg PUBLIC "-//W3C//DTD SVG 1.1//EN" "http://www.w3.org/Graphics/SVG/1.1/DTD/svg11.dtd">
<svg version="1.1" id="Layer_1" xmlns="http://www.w3.org/2000/svg" xmlns:xlink="http://www.w3.org/1999/xlink" x="0px" y="0px"
	 width="48px" height="48px" viewBox="0 0 48 48" enable-background="new 0 0 48 48" xml:space="preserve">
<g>
	<path d="M12,48c-0.256,0-0.512-0.098-0.707-0.293l-11-11c-0.391-0.391-0.391-1.023,0-1.414l35-35c0.391-0.391,1.023-0.391,1.414,0
		l11,11c0.391,0.391,0.391,1.023,0,1.414l-35,35C12.512,47.902,12.256,48,12,48z M2.414,36L12,45.586L45.586,12L36,2.414L31.914,6.5
		l4.793,4.793c0.391,0.391,0.391,1.023,0,1.414s-1.023,0.391-1.414,0L30.5,7.914L27.914,10.5l1.793,1.793
		c0.391,0.391,0.391,1.023,0,1.414s-1.023,0.391-1.414,0L26.5,11.914L23.914,14.5l4.793,4.793c0.391,0.391,0.391,1.023,0,1.414
		s-1.023,0.391-1.414,0L22.5,15.914L19.914,18.5l1.793,1.793c0.391,0.391,0.391,1.023,0,1.414s-1.023,0.391-1.414,0L18.5,19.914
		L15.914,22.5l4.793,4.793c0.391,0.391,0.391,1.023,0,1.414s-1.023,0.391-1.414,0L14.5,23.914L11.914,26.5l1.793,1.793
		c0.391,0.391,0.391,1.023,0,1.414s-1.023,0.391-1.414,0L10.5,27.914L7.914,30.5l4.793,4.793c0.391,0.391,0.391,1.023,0,1.414
		s-1.023,0.391-1.414,0L6.5,31.914L2.414,36z"/>
</g>
</svg>
