<?xml version="1.0" encoding="utf-8"?>
<!-- Generator: Adobe Illustrator 15.1.0, SVG Export Plug-In . SVG Version: 6.00 Build 0)  -->
<!DOCTYPE svg PUBLIC "-//W3C//DTD SVG 1.1//EN" "http://www.w3.org/Graphics/SVG/1.1/DTD/svg11.dtd">
<svg version="1.1" id="Layer_1" xmlns="http://www.w3.org/2000/svg" xmlns:xlink="http://www.w3.org/1999/xlink" x="0px" y="0px"
	 width="48px" height="48px" viewBox="0 0 48 48" enable-background="new 0 0 48 48" xml:space="preserve">
<g>
	<path d="M46.293,47.707l-18-18l0.101-0.101C25.376,32.336,21.379,34,17,34C7.626,34,0,26.374,0,17S7.626,0,17,0s17,7.626,17,17
		c0,4.379-1.664,8.376-4.394,11.394l0.101-0.101l18,18L46.293,47.707z M17,2C8.729,2,2,8.729,2,17c0,8.271,6.729,15,15,15
		c8.271,0,15-6.729,15-15C32,8.729,25.271,2,17,2z"/>
</g>
</svg>
