<?xml version="1.0" encoding="utf-8"?>
<!-- Generator: Adobe Illustrator 15.1.0, SVG Export Plug-In . SVG Version: 6.00 Build 0)  -->
<!DOCTYPE svg PUBLIC "-//W3C//DTD SVG 1.1//EN" "http://www.w3.org/Graphics/SVG/1.1/DTD/svg11.dtd">
<svg version="1.1" id="Layer_1" xmlns="http://www.w3.org/2000/svg" xmlns:xlink="http://www.w3.org/1999/xlink" x="0px" y="0px"
	 width="48px" height="48px" viewBox="0 0 48 48" enable-background="new 0 0 48 48" xml:space="preserve">
<g>
	<path d="M42,38c-3.309,0-6-2.691-6-6c0-2.959,2.153-5.425,4.976-5.912C40.5,17.136,33.067,10,23.999,10
		C14.932,10,7.5,17.136,7.024,26.088C9.846,26.575,12,29.041,12,32c0,3.309-2.691,6-6,6s-6-2.691-6-6
		c0-2.976,2.177-5.452,5.022-5.92C5.503,16.028,13.831,8,23.999,8c10.169,0,18.498,8.028,18.979,18.08
		C45.823,26.548,48,29.024,48,32C48,35.309,45.309,38,42,38z M42,28c-2.206,0-4,1.794-4,4s1.794,4,4,4s4-1.794,4-4S44.206,28,42,28z
		 M6,28c-2.206,0-4,1.794-4,4s1.794,4,4,4s4-1.794,4-4S8.206,28,6,28z M28,36h-8v-8h8V36z M22,34h4v-4h-4V34z"/>
</g>
</svg>
