<?xml version="1.0" encoding="utf-8"?>
<!-- Generator: Adobe Illustrator 15.1.0, SVG Export Plug-In . SVG Version: 6.00 Build 0)  -->
<!DOCTYPE svg PUBLIC "-//W3C//DTD SVG 1.1//EN" "http://www.w3.org/Graphics/SVG/1.1/DTD/svg11.dtd">
<svg version="1.1" id="Layer_1" xmlns="http://www.w3.org/2000/svg" xmlns:xlink="http://www.w3.org/1999/xlink" x="0px" y="0px"
	 width="48px" height="48px" viewBox="0 0 48 48" enable-background="new 0 0 48 48" xml:space="preserve">
<g>
	<path d="M28,46h-8v-8h8V46z M22,44h4v-4h-4V44z M24,32.5c-2.172,0-3.894-2.871-4.98-8.304c-1.132-5.66-3.252-9.535-5.4-9.87
		c-1.221-0.188-2.609,0.832-3.984,2.903C11.071,18.327,12,20.057,12,22c0,3.309-2.691,6-6,6s-6-2.691-6-6s2.691-6,6-6
		c0.647,0,1.271,0.103,1.855,0.293c1.907-2.95,3.949-4.271,6.072-3.943c3.125,0.488,5.695,4.663,7.053,11.454
		C22.079,29.297,23.533,30.5,24,30.5s1.921-1.203,3.02-6.696c1.284-6.423,3.787-10.429,6.865-10.991
		c1.496-0.274,3.736,0.16,6.186,3.505C40.677,16.112,41.325,16,42,16c3.309,0,6,2.691,6,6s-2.691,6-6,6s-6-2.691-6-6
		c0-1.912,0.898-3.617,2.296-4.717c-1.406-1.846-2.812-2.726-4.053-2.503c-2.163,0.396-4.18,4.003-5.263,9.416
		C27.895,29.629,26.172,32.5,24,32.5z M42,18c-2.206,0-4,1.794-4,4s1.794,4,4,4s4-1.794,4-4S44.206,18,42,18z M6,18
		c-2.206,0-4,1.794-4,4s1.794,4,4,4s4-1.794,4-4S8.206,18,6,18z M38,10h-8V2h8V10z M32,8h4V4h-4V8z M18,10h-8V2h8V10z M12,8h4V4h-4
		V8z"/>
</g>
</svg>
