<?xml version="1.0" encoding="utf-8"?>
<!-- Generator: Adobe Illustrator 15.1.0, SVG Export Plug-In . SVG Version: 6.00 Build 0)  -->
<!DOCTYPE svg PUBLIC "-//W3C//DTD SVG 1.1//EN" "http://www.w3.org/Graphics/SVG/1.1/DTD/svg11.dtd">
<svg version="1.1" id="Layer_1" xmlns="http://www.w3.org/2000/svg" xmlns:xlink="http://www.w3.org/1999/xlink" x="0px" y="0px"
	 width="48px" height="48px" viewBox="0 0 48 48" enable-background="new 0 0 48 48" xml:space="preserve">
<g>
	<path d="M8,48H0v-8h6.587l12.524-12.525C18.412,26.494,18,25.294,18,24c0-3.309,2.691-6,6-6c1.294,0,2.493,0.412,3.475,1.111
		L40,6.585V0h8v8h-6.587L28.889,20.525C29.588,21.506,30,22.706,30,24c0,3.309-2.691,6-6,6c-1.294,0-2.493-0.412-3.475-1.111
		L8,41.415V48z M2,46h4v-4H2V46z M24,20c-2.206,0-4,1.794-4,4c0,2.206,1.794,4,4,4c2.206,0,4-1.794,4-4C28,21.794,26.206,20,24,20z
		 M42,6h4V2h-4V6z"/>
</g>
</svg>
