<?xml version="1.0" encoding="utf-8"?>
<!-- Generator: Adobe Illustrator 15.1.0, SVG Export Plug-In . SVG Version: 6.00 Build 0)  -->
<!DOCTYPE svg PUBLIC "-//W3C//DTD SVG 1.1//EN" "http://www.w3.org/Graphics/SVG/1.1/DTD/svg11.dtd">
<svg version="1.1" id="Layer_1" xmlns="http://www.w3.org/2000/svg" xmlns:xlink="http://www.w3.org/1999/xlink" x="0px" y="0px"
	 width="48px" height="48px" viewBox="0 0 48 48" enable-background="new 0 0 48 48" xml:space="preserve">
<g>
	<path d="M48,43c-2.663,0-5.523-1.176-8.218-2.447c-2.237-1.057-5.217-2.911-8.421-7.917c-0.955-1.488-1.831-3.442-2.558-5.506
		c-2.026,0.482-3.766,0.575-4.804,0.575c-1.038,0-2.777-0.093-4.804-0.575c-0.727,2.063-1.603,4.019-2.557,5.507
		c-3.205,5.006-6.184,6.859-8.42,7.916C5.523,41.824,2.663,43,0,43v-2c2.269,0,4.881-1.084,7.365-2.256
		c1.994-0.941,4.659-2.609,7.59-7.187c0.855-1.333,1.65-3.104,2.319-4.986c-2.117-0.73-4.388-1.919-6.428-3.845
		c-2.758-2.601-3.404-8.62-1.502-14c0.742-2.101,2.333-3.633,4.258-4.099c1.73-0.418,3.498,0.073,4.852,1.351
		c2.807,2.65,2.807,7.659,2.807,11.316c0,1.961-0.548,4.943-1.442,7.924c2.72,0.637,5.643,0.638,8.365-0.001
		c-0.894-2.98-1.442-5.962-1.442-7.923c0-3.658,0-8.667,2.808-11.316c1.352-1.276,3.117-1.771,4.849-1.351
		c1.925,0.465,3.519,1.998,4.261,4.099c1.9,5.382,1.253,11.401-1.505,14.001c-2.039,1.924-4.31,3.114-6.426,3.844
		c0.668,1.881,1.464,3.652,2.318,4.985c2.93,4.577,5.596,6.245,7.591,7.188C43.119,39.916,45.73,41,48,41V43z M14.818,6.481
		c-0.247,0-0.496,0.03-0.746,0.09c-1.265,0.306-2.327,1.361-2.843,2.821c-1.627,4.604-1.192,9.822,0.989,11.88
		c1.556,1.468,3.52,2.623,5.682,3.386c0.838-2.79,1.36-5.58,1.36-7.363c0-3.293,0-7.804-2.18-9.862
		C16.417,6.807,15.633,6.481,14.818,6.481z M33.182,6.481c-0.814,0-1.598,0.326-2.261,0.952c-2.181,2.058-2.181,6.568-2.181,9.862
		c0,1.783,0.522,4.573,1.359,7.363c2.162-0.763,4.126-1.917,5.681-3.385c2.182-2.057,2.617-7.275,0.991-11.88
		c-0.516-1.46-1.58-2.516-2.845-2.821C33.677,6.511,33.428,6.481,33.182,6.481z"/>
</g>
</svg>
