<?xml version="1.0" encoding="utf-8"?>
<!-- Generator: Adobe Illustrator 15.1.0, SVG Export Plug-In . SVG Version: 6.00 Build 0)  -->
<!DOCTYPE svg PUBLIC "-//W3C//DTD SVG 1.1//EN" "http://www.w3.org/Graphics/SVG/1.1/DTD/svg11.dtd">
<svg version="1.1" id="Layer_1" xmlns="http://www.w3.org/2000/svg" xmlns:xlink="http://www.w3.org/1999/xlink" x="0px" y="0px"
	 width="48px" height="48px" viewBox="0 0 48 48" enable-background="new 0 0 48 48" xml:space="preserve">
<g>
	<path d="M24,48c-0.256,0-0.512-0.098-0.707-0.293l-7-7c-0.391-0.391-0.391-1.023,0-1.414s1.023-0.391,1.414,0L23,44.586V25H3.414
		l5.293,5.293c0.391,0.391,0.391,1.023,0,1.414s-1.023,0.391-1.414,0l-7-7C0.098,24.512,0,24.256,0,24s0.098-0.512,0.293-0.707l7-7
		c0.391-0.391,1.023-0.391,1.414,0s0.391,1.023,0,1.414L3.414,23H23V3.414l-5.293,5.293c-0.391,0.391-1.023,0.391-1.414,0
		s-0.391-1.023,0-1.414l7-7c0.391-0.391,1.023-0.391,1.414,0l7,7c0.391,0.391,0.391,1.023,0,1.414s-1.023,0.391-1.414,0L25,3.414V23
		h19.586l-5.293-5.293c-0.391-0.391-0.391-1.023,0-1.414s1.023-0.391,1.414,0l7,7C47.902,23.488,48,23.744,48,24
		s-0.098,0.512-0.293,0.707l-7,7c-0.391,0.391-1.023,0.391-1.414,0s-0.391-1.023,0-1.414L44.586,25H25v19.586l5.293-5.293
		c0.391-0.391,1.023-0.391,1.414,0s0.391,1.023,0,1.414l-7,7C24.512,47.902,24.256,48,24,48z"/>
</g>
</svg>
