<?xml version="1.0" encoding="utf-8"?>
<!-- Generator: Adobe Illustrator 15.1.0, SVG Export Plug-In . SVG Version: 6.00 Build 0)  -->
<!DOCTYPE svg PUBLIC "-//W3C//DTD SVG 1.1//EN" "http://www.w3.org/Graphics/SVG/1.1/DTD/svg11.dtd">
<svg version="1.1" id="Layer_1" xmlns="http://www.w3.org/2000/svg" xmlns:xlink="http://www.w3.org/1999/xlink" x="0px" y="0px"
	 width="48px" height="48px" viewBox="0 0 48 48" enable-background="new 0 0 48 48" xml:space="preserve">
<g>
	<path d="M1,48c-0.262,0-0.518-0.103-0.709-0.295c-0.277-0.279-0.365-0.693-0.225-1.061l5.412-14.216
		c0.05-0.133,0.128-0.252,0.228-0.353L37.531,0.292c0.391-0.39,1.023-0.39,1.414,0l8.762,8.762c0.39,0.39,0.391,1.021,0.002,1.412
		L16.001,42.369c-0.102,0.103-0.225,0.182-0.36,0.231L1.35,47.937C1.236,47.979,1.118,48,1,48z M3.657,42.83
		c0.087,0.047,0.168,0.105,0.24,0.177l1.096,1.094c0.08,0.08,0.144,0.171,0.192,0.27l6.791-2.535l-1.31-0.465
		C10.267,41.229,10,40.852,10,40.428V38H7.571c-0.438,0-0.825-0.285-0.955-0.704l-0.382-1.233L3.657,42.83z M12,39.722l2.819,0.999
		L45.588,9.764l-7.35-7.35L7.433,33.178L8.308,36H11c0.552,0,1,0.447,1,1V39.722z"/>
</g>
</svg>
