<?xml version="1.0" encoding="utf-8"?>
<!-- Generator: Adobe Illustrator 15.1.0, SVG Export Plug-In . SVG Version: 6.00 Build 0)  -->
<!DOCTYPE svg PUBLIC "-//W3C//DTD SVG 1.1//EN" "http://www.w3.org/Graphics/SVG/1.1/DTD/svg11.dtd">
<svg version="1.1" id="Layer_1" xmlns="http://www.w3.org/2000/svg" xmlns:xlink="http://www.w3.org/1999/xlink" x="0px" y="0px"
	 width="48px" height="48px" viewBox="0 0 48 48" enable-background="new 0 0 48 48" xml:space="preserve">
<g>
	<path d="M47,44H1c-0.552,0-1-0.447-1-1V11c0-0.174,0.045-0.345,0.132-0.496l4-7C4.31,3.192,4.641,3,5,3h19
		c0.359,0,0.69,0.192,0.868,0.504L28.58,10H47c0.553,0,1,0.448,1,1v32C48,43.553,47.553,44,47,44z M2,42h44V12H28
		c-0.358,0-0.69-0.192-0.868-0.504L23.42,5H5.58L2,11.266V42z M26.561,39h-8.28c-0.342,0-0.66-0.175-0.843-0.463l-4.14-6.5
		c-0.209-0.327-0.209-0.747,0-1.074L13.91,30H10c-0.552,0-1-0.447-1-1V17c0-0.552,0.448-1,1-1h11c0.552,0,1,0.448,1,1v7h3.866
		c-0.001-0.174,0.043-0.351,0.138-0.512l3.909-6.659c0.181-0.309,0.498-0.477,0.872-0.494c0.358,0.003,0.688,0.199,0.862,0.511
		l7.098,12.664c0.174,0.31,0.17,0.688-0.009,0.995C38.557,30.812,38.229,31,37.873,31h-6.145c0.122,0.298,0.094,0.642-0.084,0.918
		l-4.242,6.621C27.219,38.826,26.901,39,26.561,39z M18.829,37h7.185l3.609-5.634L26.35,26h-7.521l-3.503,5.5L18.829,37z
		 M27.988,24.847l2.591,4.246C30.707,29.033,30.85,29,31,29h5.166l-5.411-9.655l-2.962,5.046
		C27.894,24.521,27.962,24.677,27.988,24.847z M11,28h4c0.06,0,0.118,0.005,0.174,0.015l2.263-3.552
		C17.621,24.174,17.938,24,18.28,24H20v-6h-9V28z"/>
</g>
</svg>
