<?xml version="1.0" encoding="utf-8"?>
<!-- Generator: Adobe Illustrator 15.1.0, SVG Export Plug-In . SVG Version: 6.00 Build 0)  -->
<!DOCTYPE svg PUBLIC "-//W3C//DTD SVG 1.1//EN" "http://www.w3.org/Graphics/SVG/1.1/DTD/svg11.dtd">
<svg version="1.1" id="Layer_1" xmlns="http://www.w3.org/2000/svg" xmlns:xlink="http://www.w3.org/1999/xlink" x="0px" y="0px"
	 width="48px" height="48px" viewBox="0 0 48 48" enable-background="new 0 0 48 48" xml:space="preserve">
<g>
	<path fill="#FFFFFF" d="M6,48c-3.309,0-6-2.691-6-6s2.691-6,6-6c1.294,0,2.494,0.412,3.475,1.111L37.111,9.475
		C36.412,8.494,36,7.294,36,6c0-3.309,2.691-6,6-6s6,2.691,6,6s-2.691,6-6,6c-1.294,0-2.493-0.412-3.475-1.111L10.889,38.525
		C11.588,39.507,12,40.706,12,42C12,45.309,9.309,48,6,48z M6,38c-2.206,0-4,1.794-4,4s1.794,4,4,4s4-1.794,4-4S8.206,38,6,38z
		 M42,2c-2.206,0-4,1.794-4,4s1.794,4,4,4s4-1.794,4-4S44.206,2,42,2z"/>
</g>
</svg>
